<svg width="80" height="80" viewBox="0 0 80 80" fill="none" xmlns="http://www.w3.org/2000/svg">
<path d="M56.6666 70H66.6666C72.1666 70 76.6666 65.5 76.6666 60V33.0667L56.6666 48.6667V70ZM65 10C62.3666 10 59.8666 10.8667 57.8 12.4667L56.6666 13.3667V40.2333L76.6666 24.6V21.6667C76.6666 15.2333 71.4333 10 65 10ZM30 18.5667V45.4333L40 53.2333L50 45.4333V18.5667L40 26.3667L30 18.5667ZM3.33331 60C3.33331 65.5 7.83331 70 13.3333 70H23.3333V48.6667L3.33331 33.0667V60ZM15 10C8.56665 10 3.33331 15.2333 3.33331 21.6667V24.6L23.3333 40.2333V13.3667L22.2 12.4667C20.1333 10.8667 17.6333 10 15 10Z" fill="#FF0000"/>
</svg>
