<svg width="88" height="88" viewBox="0 0 88 88" fill="none" xmlns="http://www.w3.org/2000/svg">
<path d="M65.36 0.504243C53.6 -1.69576 42.84 3.50424 36.88 12.1842C36.92 12.1442 36.92 12.1042 36.96 12.0642C35.36 11.9842 33.68 11.9842 32 11.9842C14.32 11.9842 0 13.9842 0 27.9842V67.9842C0 71.5042 1.56 74.6642 4 76.8642V87.9842H16V79.9842H48V87.9842H60V76.8642C62.44 74.6642 64 71.5042 64 67.9842V55.6642C78.88 53.5042 90 39.7442 87.68 23.7842C86 12.1842 76.88 2.62424 65.36 0.504243ZM14 71.9842C10.68 71.9842 8 69.3042 8 65.9842C8 62.6642 10.68 59.9842 14 59.9842C17.32 59.9842 20 62.6642 20 65.9842C20 69.3042 17.32 71.9842 14 71.9842ZM8 47.9842V27.9842H32C32 35.8242 35.24 42.9042 40.44 47.9842H8ZM50 71.9842C46.68 71.9842 44 69.3042 44 65.9842C44 62.6642 46.68 59.9842 50 59.9842C53.32 59.9842 56 62.6642 56 65.9842C56 69.3042 53.32 71.9842 50 71.9842ZM60 47.9842C48.96 47.9842 40 39.0242 40 27.9842C40 16.9442 48.96 7.98424 60 7.98424C71.04 7.98424 80 16.9442 80 27.9842C80 39.0242 71.04 47.9842 60 47.9842ZM62 11.9842H56V31.9842L70.48 40.6242L73.48 35.7042L62 28.9842V11.9842Z" fill="#FF0404"/>
</svg>
