<svg width="80" height="80" viewBox="0 0 80 80" fill="none" xmlns="http://www.w3.org/2000/svg">
<path d="M10 10V70H70V10H10ZM60 16.6667C61.84 16.6667 63.3333 18.16 63.3333 20C63.3333 21.84 61.84 23.3333 60 23.3333C58.16 23.3333 56.6667 21.84 56.6667 20C56.6667 18.16 58.16 16.6667 60 16.6667ZM40 23.3333C49.2033 23.3333 56.6667 30.7967 56.6667 40C56.6667 49.2033 49.2033 56.6667 40 56.6667C30.7967 56.6667 23.3333 49.2033 23.3333 40C23.3333 30.7967 30.7967 23.3333 40 23.3333ZM40 30C37.3478 30 34.8043 31.0536 32.9289 32.9289C31.0536 34.8043 30 37.3478 30 40C30 42.6522 31.0536 45.1957 32.9289 47.0711C34.8043 48.9464 37.3478 50 40 50C42.6522 50 45.1957 48.9464 47.0711 47.0711C48.9464 45.1957 50 42.6522 50 40C50 37.3478 48.9464 34.8043 47.0711 32.9289C45.1957 31.0536 42.6522 30 40 30Z" fill="#FF0808"/>
</svg>
