<svg width="72" height="88" viewBox="0 0 72 88" fill="none" xmlns="http://www.w3.org/2000/svg">
<path d="M40.046 70.992L41.159 71.679L41.9911 70.6698L51.5369 59.092L70.4938 61.7534V85.7635C31.98 87.4642 -0.0156508 49.0927 1.55493 1.5H20.7906L23.0414 24.9951L13.3164 36.7902L12.7409 37.4882L13.0898 38.3229C18.9567 52.3568 28.4298 63.8232 40.046 70.992ZM37.4938 8.24728V1.53959C55.219 2.47657 69.8406 19.9358 70.4725 42.1632H65.4677C64.8391 24.097 52.9095 9.16168 37.4938 8.24728ZM37.4938 27.704V20.9812C46.4062 21.8782 53.8535 30.6923 54.4546 42.1632H49.4349C48.8534 34.772 44.0183 28.5398 37.4938 27.704Z" fill="white" stroke="#FF0808" stroke-width="3"/>
</svg>
