<svg width="52" height="45" viewBox="0 0 52 45" fill="none" xmlns="http://www.w3.org/2000/svg">
<path d="M28.599 36.6076C26.6329 36.6076 25.042 38.2726 25.042 40.3076C25.042 42.3426 26.6329 44.0076 28.599 44.0076C30.5652 44.0076 32.1739 42.3426 32.1739 40.3076C32.1739 38.2726 30.5652 36.6076 28.599 36.6076ZM10.7246 36.6076C8.75845 36.6076 7.16763 38.2726 7.16763 40.3076C7.16763 42.3426 8.75845 44.0076 10.7246 44.0076C12.6908 44.0076 14.2995 42.3426 14.2995 40.3076C14.2995 38.2726 12.6908 36.6076 10.7246 36.6076ZM10.7246 31.0576L12.6908 27.3576H26.0072C27.3478 27.3576 28.5275 26.5991 29.1353 25.4521L37 10.7076H7.52512L5.84493 7.00757H0V10.7076H3.57488L10.0097 24.7491L4.68309 34.7576H32.1739V31.0576H10.7246Z" fill="black"/>
<ellipse cx="39.025" cy="9.5" rx="9.025" ry="9.5" fill="black"/>
<path d="M43.2514 9.27273C43.2514 10.2822 43.0668 11.1501 42.6974 11.8764C42.3281 12.5997 41.8219 13.1567 41.1786 13.5476C40.5385 13.9354 39.8106 14.1293 38.995 14.1293C38.1764 14.1293 37.4454 13.9354 36.8022 13.5476C36.1621 13.1567 35.6573 12.5981 35.288 11.8718C34.9187 11.1455 34.734 10.2791 34.734 9.27273C34.734 8.26326 34.9187 7.3969 35.288 6.67365C35.6573 5.94732 36.1621 5.39027 36.8022 5.00249C37.4454 4.61162 38.1764 4.41619 38.995 4.41619C39.8106 4.41619 40.5385 4.61162 41.1786 5.00249C41.8219 5.39027 42.3281 5.94732 42.6974 6.67365C43.0668 7.3969 43.2514 8.26326 43.2514 9.27273ZM41.8388 9.27273C41.8388 8.50331 41.7141 7.85547 41.4648 7.32919C41.2186 6.79983 40.8801 6.39974 40.4492 6.12891C40.0214 5.855 39.5367 5.71804 38.995 5.71804C38.4503 5.71804 37.964 5.855 37.5362 6.12891C37.1084 6.39974 36.7699 6.79983 36.5206 7.32919C36.2744 7.85547 36.1513 8.50331 36.1513 9.27273C36.1513 10.0421 36.2744 10.6915 36.5206 11.2209C36.7699 11.7472 37.1084 12.1473 37.5362 12.4212C37.964 12.692 38.4503 12.8274 38.995 12.8274C39.5367 12.8274 40.0214 12.692 40.4492 12.4212C40.8801 12.1473 41.2186 11.7472 41.4648 11.2209C41.7141 10.6915 41.8388 10.0421 41.8388 9.27273Z" fill="white"/>
</svg>
