<svg width="81" height="80" viewBox="0 0 81 80" fill="none" xmlns="http://www.w3.org/2000/svg">
<rect width="81" height="80" fill="white"/>
<path d="M70.875 16.6663C70.875 16.6663 60.75 13.333 40.5 13.333C20.25 13.333 10.125 16.6663 10.125 16.6663C10.125 16.6663 6.75 26.6663 6.75 39.9997C6.75 53.333 10.125 63.333 10.125 63.333C10.125 63.333 20.25 66.6663 40.5 66.6663C60.75 66.6663 70.875 63.333 70.875 63.333C70.875 63.333 74.25 53.333 74.25 39.9997C74.25 26.6663 70.875 16.6663 70.875 16.6663ZM33.75 51.5463V28.453L54 39.9997L33.75 51.5463Z" fill="#FF0000"/>
</svg>
